<svg width="24" height="28" viewBox="0 0 24 28" fill="none" xmlns="http://www.w3.org/2000/svg">
<path d="M17.8547 0.973633C17.9859 2.54116 17.4443 4.09374 16.3449 5.30165C15.8185 5.90093 15.1504 6.38306 14.3909 6.71174C13.6314 7.04042 12.8003 7.20707 11.9602 7.19916C11.9066 6.44536 12.0159 5.68928 12.2817 4.97414C12.5476 4.259 12.9648 3.59883 13.5096 3.03138C14.6238 1.8698 16.1752 1.13509 17.8547 0.973633Z" fill="black"/>
<path d="M20.9185 12.3825C20.3603 13.2826 20.06 14.2973 20.0454 15.3322C20.0468 16.4963 20.4225 17.6343 21.1257 18.6042C21.829 19.5742 22.8286 20.3332 24 20.7867C23.5394 22.1561 22.8452 23.4502 21.943 24.6211C20.7314 26.28 19.4611 27.9006 17.4448 27.9306C16.4859 27.9508 15.8386 27.6984 15.1641 27.4354C14.4606 27.1611 13.7275 26.8753 12.5802 26.8753C11.3636 26.8753 10.5976 27.1703 9.85886 27.4549C9.22047 27.7008 8.6024 27.9389 7.73135 27.972C5.81117 28.037 4.3437 26.2014 3.08806 24.5581C0.578406 21.2022 -1.37578 15.1006 1.24408 10.9489C1.8489 9.95414 2.72493 9.11974 3.78682 8.527C4.84871 7.93426 6.06025 7.60338 7.30339 7.56662C8.39244 7.54612 9.43745 7.93031 10.3536 8.26713C11.0543 8.52473 11.6796 8.75462 12.1917 8.75462C12.6419 8.75462 13.2497 8.5338 13.9582 8.27646C15.0741 7.87107 16.4396 7.37505 17.8311 7.50874C18.8975 7.53928 19.9414 7.79698 20.8799 8.26139C21.8185 8.72579 22.6258 9.3841 23.2378 10.184C22.2745 10.7261 21.4766 11.4823 20.9185 12.3825Z" fill="black"/>
</svg>
