<svg width="197" height="38" viewBox="0 0 197 38" fill="none" xmlns="http://www.w3.org/2000/svg">
<path d="M194.434 20.362C194.925 19.8713 194.925 19.0755 194.434 18.5847L186.436 10.5869C185.946 10.0961 185.15 10.0961 184.659 10.5869C184.168 11.0777 184.168 11.8734 184.659 12.3642L191.768 19.4734L184.659 26.5826C184.168 27.0734 184.168 27.8691 184.659 28.3599C185.15 28.8507 185.946 28.8507 186.436 28.3599L194.434 20.362ZM0 20.7301H2.54665V18.2166H0V20.7301ZM7.63996 20.7301H12.7333V18.2166H7.63996V20.7301ZM17.8266 20.7301H22.9199V18.2166H17.8266V20.7301ZM28.0132 20.7301H33.1065V18.2166H28.0132V20.7301ZM38.1998 20.7301H43.2931V18.2166H38.1998V20.7301ZM48.3864 20.7301H53.4797V18.2166H48.3864V20.7301ZM58.573 20.7301H63.6663V18.2166H58.573V20.7301ZM68.7596 20.7301H73.8529V18.2166H68.7596V20.7301ZM78.9463 20.7301H84.0396V18.2166H78.9463V20.7301ZM89.1329 20.7301H94.2262V18.2166H89.1329V20.7301ZM99.3195 20.7301H104.413V18.2166H99.3195V20.7301ZM109.506 20.7301H114.599V18.2166H109.506V20.7301ZM119.693 20.7301H124.786V18.2166H119.693V20.7301ZM129.879 20.7301H134.973V18.2166H129.879V20.7301ZM140.066 20.7301H145.159V18.2166H140.066V20.7301ZM150.253 20.7301H155.346V18.2166H150.253V20.7301ZM160.439 20.7301H165.532V18.2166H160.439V20.7301ZM170.626 20.7301H175.719V18.2166H170.626V20.7301ZM180.812 20.7301H185.906V18.2166H180.812V20.7301ZM190.999 20.7301H193.546V18.2166H190.999V20.7301ZM195.323 21.2507C196.305 20.2691 196.305 18.6777 195.323 17.6961L179.327 1.70036C178.346 0.718786 176.754 0.718786 175.773 1.70036C174.791 2.68194 174.791 4.27339 175.773 5.25497L189.991 19.4734L175.773 33.6918C174.791 34.6734 174.791 36.2648 175.773 37.2464C176.754 38.228 178.346 38.228 179.327 37.2464L195.323 21.2507ZM0 21.9869H2.54665V16.9599H0V21.9869ZM7.63996 21.9869H12.7333V16.9599H7.63996V21.9869ZM17.8266 21.9869H22.9199V16.9599H17.8266V21.9869ZM28.0132 21.9869H33.1065V16.9599H28.0132V21.9869ZM38.1998 21.9869H43.2931V16.9599H38.1998V21.9869ZM48.3864 21.9869H53.4797V16.9599H48.3864V21.9869ZM58.573 21.9869H63.6663V16.9599H58.573V21.9869ZM68.7596 21.9869H73.8529V16.9599H68.7596V21.9869ZM78.9463 21.9869H84.0396V16.9599H78.9463V21.9869ZM89.1329 21.9869H94.2262V16.9599H89.1329V21.9869ZM99.3195 21.9869H104.413V16.9599H99.3195V21.9869ZM109.506 21.9869H114.599V16.9599H109.506V21.9869ZM119.693 21.9869H124.786V16.9599H119.693V21.9869ZM129.879 21.9869H134.973V16.9599H129.879V21.9869ZM140.066 21.9869H145.159V16.9599H140.066V21.9869ZM150.253 21.9869H155.346V16.9599H150.253V21.9869ZM160.439 21.9869H165.532V16.9599H160.439V21.9869ZM170.626 21.9869H175.719V16.9599H170.626V21.9869ZM180.812 21.9869H185.906V16.9599H180.812V21.9869ZM190.999 21.9869H193.546V16.9599H190.999V21.9869Z" fill="#389D3C"/>
</svg>
