<svg width="150" height="150" viewBox="0 0 150 150" fill="none" xmlns="http://www.w3.org/2000/svg">
<circle cx="75" cy="75" r="75" fill="black"/>
<path d="M122.24 59.08C122.4 59.9867 122.507 60.6267 122.56 61C122.667 61.32 122.72 61.7733 122.72 62.36C122.72 64.12 122.32 65.7733 121.52 67.32C120.773 68.8133 119.733 69.88 118.4 70.52C117.333 69.08 116.027 67.8533 114.48 66.84C112.933 65.7733 111.227 64.92 109.36 64.28C107.547 63.5867 105.653 63.08 103.68 62.76C101.707 62.44 99.7867 62.28 97.92 62.28C96.0533 62.28 94.2933 62.44 92.64 62.76C91.04 63.0267 89.6 63.4267 88.32 63.96C87.0933 64.44 86.1067 65.0533 85.36 65.8C84.6667 66.5467 84.32 67.4 84.32 68.36C84.48 69.5333 85.2 70.7333 86.48 71.96C87.76 73.1333 89.3333 74.3067 91.2 75.48C93.0667 76.6 95.12 77.72 97.36 78.84C99.6533 79.96 101.893 81.0267 104.08 82.04C106.8 83.32 109.147 84.52 111.12 85.64C113.093 86.7067 114.72 87.9067 116 89.24C117.28 90.52 118.24 91.9867 118.88 93.64C119.52 95.2933 119.84 97.2933 119.84 99.64C119.84 102.36 119.387 104.92 118.48 107.32C117.573 109.667 116.24 111.72 114.48 113.48C112.773 115.24 110.693 116.6 108.24 117.56C105.787 118.573 103.04 119.08 100 119.08C97.0133 119.08 93.7867 118.627 90.32 117.72C86.8533 116.813 83.6 115.56 80.56 113.96C77.5733 112.413 75.0667 110.627 73.04 108.6C71.0667 106.52 70.08 104.333 70.08 102.04C70.08 100.973 70.3733 99.6133 70.96 97.96C71.6 96.3067 72.72 94.5733 74.32 92.76C74.48 94.36 75.3333 96.2533 76.88 98.44C78.48 100.627 80.8533 102.653 84 104.52C86.9333 106.227 89.9467 107.48 93.04 108.28C96.1867 109.027 99.12 109.4 101.84 109.4C104.827 109.4 107.253 109.027 109.12 108.28C110.987 107.533 112.453 106.653 113.52 105.64C114.587 104.573 115.333 103.507 115.76 102.44C116.187 101.373 116.427 100.52 116.48 99.88C116.427 98.8133 115.92 97.8 114.96 96.84C114.053 95.8267 112.8 94.8667 111.2 93.96C109.653 93 107.84 92.04 105.76 91.08C103.68 90.12 101.52 89.16 99.28 88.2C95.92 86.7067 93.0133 85.32 90.56 84.04C88.16 82.7067 86.16 81.3733 84.56 80.04C83.0133 78.6533 81.8667 77.2133 81.12 75.72C80.4267 74.2267 80.08 72.52 80.08 70.6C80.08 67.6133 80.9867 64.7867 82.8 62.12C84.6133 59.4533 87.2267 57.4267 90.64 56.04C92.3467 55.2933 94.16 54.76 96.08 54.44C98.0533 54.12 99.9733 53.96 101.84 53.96C105.36 53.96 108.8 54.44 112.16 55.4C115.52 56.36 118.88 57.5867 122.24 59.08Z" fill="white"/>
<path d="M67.28 92.36C67.28 90.12 67.6533 87.24 68.4 83.72C69.1467 80.2 70.1333 76.44 71.36 72.44C67.84 72.7067 64.2933 73.0533 60.72 73.48C57.2 73.9067 54.1333 74.1467 51.52 74.2C49.12 79.8 47.2 84.9733 45.76 89.72C44.3733 94.4133 43.28 99 42.48 103.48C40.4533 103 38.7733 102.147 37.44 100.92C36.1067 99.7467 34.88 98.2533 33.76 96.44C34.1867 95.5867 34.6667 94.4933 35.2 93.16C35.7867 91.8267 36.4533 90.2267 37.2 88.36C38 86.44 38.88 84.2267 39.84 81.72C40.8533 79.16 42 76.2 43.28 72.84C41.52 72.0933 40.3467 71.0533 39.76 69.72C40.0267 69.5067 40.6133 69.2933 41.52 69.08C42.48 68.8133 43.6533 68.5467 45.04 68.28L46.08 65.72C47.2 62.84 48.1067 60.4133 48.8 58.44C49.5467 56.4667 50.16 54.5467 50.64 52.68C51.1733 50.76 51.6533 48.6533 52.08 46.36C52.56 44.0667 53.12 41.16 53.76 37.64C56 38.0667 58.0267 39.0533 59.84 40.6C61.7067 42.1467 63.3067 44.0133 64.64 46.2C64.16 46.84 63.5733 47.8 62.88 49.08C62.1867 50.36 61.4133 51.9067 60.56 53.72C59.76 55.48 58.88 57.48 57.92 59.72C56.96 61.9067 55.92 64.2267 54.8 66.68C58.1067 66.2533 61.44 65.8533 64.8 65.48C68.2133 65.1067 71.2267 64.84 73.84 64.68C74.8 61.9067 75.7867 59.2133 76.8 56.6C77.8667 53.9333 78.9067 51.5067 79.92 49.32C80.9333 47.1333 81.8933 45.2133 82.8 43.56C83.76 41.9067 84.6133 40.68 85.36 39.88C85.8933 39.9333 86.5867 40.1467 87.44 40.52C88.3467 40.84 89.2533 41.24 90.16 41.72C91.0667 42.2 91.8933 42.7333 92.64 43.32C93.3867 43.8533 93.8933 44.36 94.16 44.84C93.2 45.7467 92.24 46.92 91.28 48.36C90.32 49.8 89.36 51.4533 88.4 53.32C87.4933 55.1867 86.5867 57.2133 85.68 59.4C84.7733 61.5867 83.92 63.8533 83.12 66.2C84.1867 67.16 84.72 68.36 84.72 69.8C84.72 70.8133 84.5067 71.7467 84.08 72.6C83.6 72.4933 83.12 72.44 82.64 72.44C82.16 72.3867 81.6533 72.3333 81.12 72.28C80.2133 75.16 79.3867 78.0133 78.64 80.84C77.8933 83.6667 77.2533 86.36 76.72 88.92C76.24 91.48 75.84 93.8267 75.52 95.96C75.2533 98.0933 75.12 99.88 75.12 101.32C75.12 101.853 75.12 102.28 75.12 102.6C75.1733 102.92 75.2267 103.187 75.28 103.4C74.1067 103.347 73.2533 103.133 72.72 102.76C72.1867 102.44 71.7867 102.067 71.52 101.64C71.2533 101.267 71.0133 100.867 70.8 100.44C70.5867 100.067 70.24 99.7733 69.76 99.56C69.3867 99.4 69.04 99.0267 68.72 98.44C68.4 97.8533 68.1333 97.1867 67.92 96.44C67.7067 95.6933 67.5467 94.9467 67.44 94.2C67.3333 93.4533 67.28 92.84 67.28 92.36Z" fill="white"/>
</svg>
