<svg width="208" height="32" viewBox="0 0 208 32" fill="none" xmlns="http://www.w3.org/2000/svg">
<path d="M0.528409 31V1.90909H6.67898V13.9119H19.1648V1.90909H25.3011V31H19.1648V18.983H6.67898V31H0.528409ZM36.4801 31.4119C35.0881 31.4119 33.8475 31.1705 32.7585 30.6875C31.6695 30.1951 30.8078 29.4706 30.1733 28.5142C29.5483 27.5483 29.2358 26.3456 29.2358 24.9062C29.2358 23.6941 29.4583 22.6761 29.9034 21.8523C30.3485 21.0284 30.9545 20.3655 31.7216 19.8636C32.4886 19.3617 33.3598 18.983 34.3352 18.7273C35.3201 18.4716 36.3523 18.2917 37.4318 18.1875C38.7008 18.0549 39.7235 17.9318 40.5 17.8182C41.2765 17.6951 41.84 17.5152 42.1903 17.2784C42.5407 17.0417 42.7159 16.6913 42.7159 16.2273V16.142C42.7159 15.2424 42.4318 14.5464 41.8636 14.054C41.3049 13.5616 40.5095 13.3153 39.4773 13.3153C38.3883 13.3153 37.5218 13.5568 36.8778 14.0398C36.2339 14.5133 35.8078 15.1098 35.5994 15.8295L30.0028 15.375C30.2869 14.0492 30.8456 12.9034 31.679 11.9375C32.5123 10.9621 33.5871 10.214 34.9034 9.69318C36.2292 9.16288 37.7633 8.89773 39.5057 8.89773C40.7178 8.89773 41.8778 9.03977 42.9858 9.32386C44.1032 9.60795 45.0928 10.0483 45.9545 10.6449C46.8258 11.2415 47.5123 12.0085 48.0142 12.946C48.5161 13.8741 48.767 14.9867 48.767 16.2841V31H43.0284V27.9744H42.858C42.5076 28.6562 42.0388 29.2576 41.4517 29.7784C40.8646 30.2898 40.1591 30.6922 39.3352 30.9858C38.5114 31.2699 37.5597 31.4119 36.4801 31.4119ZM38.2131 27.2358C39.1032 27.2358 39.8892 27.0606 40.571 26.7102C41.2528 26.3504 41.7879 25.8674 42.1761 25.2614C42.5644 24.6553 42.7585 23.9687 42.7585 23.2017V20.8864C42.5691 21.0095 42.3087 21.1231 41.9773 21.2273C41.6553 21.322 41.2907 21.4119 40.8835 21.4972C40.4763 21.5729 40.0691 21.6439 39.6619 21.7102C39.2547 21.767 38.8854 21.8191 38.554 21.8665C37.8438 21.9706 37.2235 22.1364 36.6932 22.3636C36.1629 22.5909 35.7509 22.8987 35.4574 23.2869C35.1638 23.6657 35.017 24.1392 35.017 24.7074C35.017 25.5312 35.3153 26.161 35.9119 26.5966C36.518 27.0227 37.285 27.2358 38.2131 27.2358ZM53.4616 31V9.18182H59.5128V31H53.4616ZM56.5014 6.36932C55.6018 6.36932 54.83 6.07102 54.1861 5.47443C53.5516 4.86837 53.2344 4.14394 53.2344 3.30114C53.2344 2.4678 53.5516 1.75284 54.1861 1.15625C54.83 0.550188 55.6018 0.247158 56.5014 0.247158C57.401 0.247158 58.1681 0.550188 58.8026 1.15625C59.4465 1.75284 59.7685 2.4678 59.7685 3.30114C59.7685 4.14394 59.4465 4.86837 58.8026 5.47443C58.1681 6.07102 57.401 6.36932 56.5014 6.36932ZM64.3601 31V9.18182H70.2266V12.9886H70.4538C70.8516 11.6345 71.5192 10.6117 72.4567 9.92045C73.3942 9.2197 74.4737 8.86932 75.6953 8.86932C75.9983 8.86932 76.325 8.88826 76.6754 8.92614C77.0258 8.96402 77.3336 9.0161 77.5987 9.08239V14.4517C77.3146 14.3665 76.9216 14.2907 76.4197 14.2244C75.9179 14.1581 75.4586 14.125 75.0419 14.125C74.1518 14.125 73.3563 14.3191 72.6555 14.7074C71.9643 15.0862 71.415 15.6165 71.0078 16.2983C70.6101 16.9801 70.4112 17.7661 70.4112 18.6562V31H64.3601ZM105.88 10.2756C105.766 9.12973 105.279 8.23958 104.417 7.60511C103.555 6.97064 102.386 6.65341 100.908 6.65341C99.9046 6.65341 99.0571 6.79545 98.3658 7.07955C97.6745 7.35417 97.1442 7.73769 96.7749 8.23011C96.415 8.72254 96.2351 9.28125 96.2351 9.90625C96.2161 10.4271 96.325 10.8816 96.5618 11.2699C96.808 11.6581 97.1442 11.9943 97.5703 12.2784C97.9964 12.553 98.4889 12.7945 99.0476 13.0028C99.6063 13.2017 100.203 13.3722 100.837 13.5142L103.451 14.1392C104.72 14.4233 105.885 14.8021 106.945 15.2756C108.006 15.7491 108.924 16.3314 109.701 17.0227C110.478 17.714 111.079 18.5284 111.505 19.4659C111.941 20.4034 112.163 21.4782 112.173 22.6903C112.163 24.4706 111.709 26.0142 110.809 27.321C109.919 28.6184 108.631 29.6269 106.945 30.3466C105.269 31.0568 103.247 31.4119 100.88 31.4119C98.5315 31.4119 96.486 31.0521 94.7436 30.3324C93.0107 29.6127 91.6565 28.5473 90.6811 27.1364C89.7152 25.7159 89.2086 23.9593 89.1612 21.8665H95.1129C95.1792 22.8419 95.4586 23.6562 95.951 24.3097C96.4529 24.9536 97.1205 25.4413 97.9538 25.7727C98.7966 26.0947 99.7483 26.2557 100.809 26.2557C101.851 26.2557 102.755 26.1042 103.522 25.8011C104.299 25.4981 104.9 25.0767 105.326 24.5369C105.752 23.9972 105.965 23.3769 105.965 22.6761C105.965 22.0227 105.771 21.4735 105.383 21.0284C105.004 20.5833 104.445 20.2045 103.707 19.892C102.978 19.5795 102.083 19.2955 101.022 19.0398L97.8544 18.2443C95.4018 17.6477 93.4652 16.715 92.0447 15.446C90.6243 14.1771 89.9188 12.4678 89.9283 10.3182C89.9188 8.55682 90.3875 7.01799 91.3345 5.7017C92.291 4.38542 93.6025 3.35795 95.2692 2.61932C96.9358 1.88068 98.8298 1.51136 100.951 1.51136C103.11 1.51136 104.995 1.88068 106.604 2.61932C108.224 3.35795 109.483 4.38542 110.383 5.7017C111.282 7.01799 111.746 8.54261 111.775 10.2756H105.88ZM126.139 31.4261C123.895 31.4261 121.963 30.9716 120.344 30.0625C118.734 29.1439 117.493 27.8466 116.622 26.1705C115.751 24.4848 115.315 22.4915 115.315 20.1903C115.315 17.946 115.751 15.9763 116.622 14.2812C117.493 12.5862 118.72 11.2652 120.301 10.3182C121.892 9.37121 123.758 8.89773 125.898 8.89773C127.337 8.89773 128.677 9.12973 129.918 9.59375C131.168 10.0483 132.257 10.7348 133.185 11.6534C134.122 12.572 134.851 13.7273 135.372 15.1193C135.893 16.5019 136.153 18.1212 136.153 19.9773V21.6392H117.73V17.8892H130.457C130.457 17.018 130.268 16.2462 129.889 15.5739C129.51 14.9015 128.985 14.3759 128.312 13.9972C127.65 13.6089 126.878 13.4148 125.997 13.4148C125.079 13.4148 124.264 13.6278 123.554 14.054C122.853 14.4706 122.304 15.0341 121.906 15.7443C121.509 16.4451 121.305 17.2263 121.295 18.0881V21.6534C121.295 22.733 121.494 23.6657 121.892 24.4517C122.299 25.2377 122.872 25.8438 123.611 26.2699C124.349 26.696 125.225 26.9091 126.239 26.9091C126.911 26.9091 127.527 26.8144 128.085 26.625C128.644 26.4356 129.122 26.1515 129.52 25.7727C129.918 25.3939 130.221 24.9299 130.429 24.3807L136.026 24.75C135.741 26.0947 135.159 27.2689 134.278 28.2727C133.407 29.267 132.28 30.0436 130.898 30.6023C129.525 31.1515 127.938 31.4261 126.139 31.4261ZM146.153 18.3864V31H140.102V9.18182H145.869V13.0312H146.125C146.608 11.7623 147.418 10.7585 148.554 10.0199C149.69 9.27178 151.068 8.89773 152.688 8.89773C154.203 8.89773 155.524 9.22917 156.651 9.89205C157.777 10.5549 158.653 11.5019 159.278 12.733C159.903 13.9545 160.216 15.4129 160.216 17.108V31H154.165V18.1875C154.174 16.8523 153.833 15.8106 153.142 15.0625C152.451 14.3049 151.499 13.9261 150.287 13.9261C149.473 13.9261 148.753 14.1013 148.128 14.4517C147.512 14.8021 147.029 15.3134 146.679 15.9858C146.338 16.6487 146.163 17.4489 146.153 18.3864ZM183.138 15.4034L177.599 15.7443C177.504 15.2708 177.3 14.8447 176.988 14.4659C176.675 14.0777 176.263 13.7699 175.752 13.5426C175.25 13.3059 174.649 13.1875 173.948 13.1875C173.011 13.1875 172.22 13.3864 171.576 13.7841C170.932 14.1723 170.61 14.6932 170.61 15.3466C170.61 15.8674 170.818 16.3078 171.235 16.6676C171.652 17.0275 172.367 17.3163 173.38 17.5341L177.329 18.3295C179.45 18.7652 181.031 19.4659 182.073 20.4318C183.115 21.3977 183.636 22.6667 183.636 24.2386C183.636 25.6686 183.214 26.9233 182.371 28.0028C181.538 29.0824 180.392 29.9252 178.934 30.5312C177.485 31.1278 175.814 31.4261 173.92 31.4261C171.031 31.4261 168.73 30.8248 167.016 29.6222C165.312 28.41 164.313 26.7623 164.019 24.679L169.971 24.3665C170.151 25.2472 170.586 25.9195 171.278 26.3835C171.969 26.8381 172.854 27.0653 173.934 27.0653C174.995 27.0653 175.847 26.8617 176.491 26.4545C177.144 26.0379 177.476 25.5028 177.485 24.8494C177.476 24.3002 177.244 23.8504 176.789 23.5C176.335 23.1402 175.634 22.8655 174.687 22.6761L170.908 21.9233C168.778 21.4972 167.192 20.7585 166.15 19.7074C165.118 18.6562 164.602 17.3163 164.602 15.6875C164.602 14.286 164.98 13.0786 165.738 12.0653C166.505 11.0521 167.58 10.2708 168.962 9.72159C170.354 9.17235 171.983 8.89773 173.849 8.89773C176.604 8.89773 178.773 9.48011 180.354 10.6449C181.945 11.8097 182.873 13.3958 183.138 15.4034ZM197.389 31.4261C195.145 31.4261 193.213 30.9716 191.594 30.0625C189.984 29.1439 188.743 27.8466 187.872 26.1705C187.001 24.4848 186.565 22.4915 186.565 20.1903C186.565 17.946 187.001 15.9763 187.872 14.2812C188.743 12.5862 189.97 11.2652 191.551 10.3182C193.142 9.37121 195.008 8.89773 197.148 8.89773C198.587 8.89773 199.927 9.12973 201.168 9.59375C202.418 10.0483 203.507 10.7348 204.435 11.6534C205.372 12.572 206.101 13.7273 206.622 15.1193C207.143 16.5019 207.403 18.1212 207.403 19.9773V21.6392H188.98V17.8892H201.707C201.707 17.018 201.518 16.2462 201.139 15.5739C200.76 14.9015 200.235 14.3759 199.562 13.9972C198.9 13.6089 198.128 13.4148 197.247 13.4148C196.329 13.4148 195.514 13.6278 194.804 14.054C194.103 14.4706 193.554 15.0341 193.156 15.7443C192.759 16.4451 192.555 17.2263 192.545 18.0881V21.6534C192.545 22.733 192.744 23.6657 193.142 24.4517C193.549 25.2377 194.122 25.8438 194.861 26.2699C195.599 26.696 196.475 26.9091 197.489 26.9091C198.161 26.9091 198.777 26.8144 199.335 26.625C199.894 26.4356 200.372 26.1515 200.77 25.7727C201.168 25.3939 201.471 24.9299 201.679 24.3807L207.276 24.75C206.991 26.0947 206.409 27.2689 205.528 28.2727C204.657 29.267 203.53 30.0436 202.148 30.6023C200.775 31.1515 199.188 31.4261 197.389 31.4261Z" fill="#2342B0"/>
</svg>
